<svg width="465" height="763" viewBox="0 0 465 763" fill="none" xmlns="http://www.w3.org/2000/svg">
<g opacity="0.5" filter="url(#filter0_f_716_1683)">
<path d="M262.062 49.4693L63.6074 109.444C42.1632 115.924 29.0039 140.566 34.2153 164.482L149.544 693.749C154.755 717.665 176.364 731.8 197.808 725.319L396.263 665.344C417.707 658.864 430.866 634.223 425.655 610.307L310.326 81.0388C305.115 57.1229 283.506 42.9887 262.062 49.4693Z" fill="black"/>
</g>
<path d="M52.7713 194.773L51.0456 195.294C49.616 195.726 48.7387 197.369 49.0861 198.963L54.1186 222.059C54.466 223.653 55.9066 224.595 57.3362 224.163L59.0619 223.642C60.4915 223.21 61.3688 221.567 61.0214 219.973L55.9889 196.877C55.6415 195.283 54.2009 194.341 52.7713 194.773Z" fill="#111111"/>
<path d="M63.2556 242.887L61.5299 243.409C60.1003 243.841 59.223 245.484 59.5705 247.078L69.8452 294.231C70.1926 295.825 71.6332 296.768 73.0628 296.336L74.7885 295.814C76.2181 295.382 77.0954 293.739 76.748 292.145L66.4732 244.992C66.1258 243.398 64.6853 242.455 63.2556 242.887Z" fill="#111111"/>
<path d="M77.9334 310.249L76.2077 310.77C74.7781 311.202 73.9008 312.845 74.2482 314.439L84.5229 361.592C84.8704 363.187 86.3109 364.129 87.7406 363.697L89.4663 363.176C90.8959 362.743 91.7732 361.101 91.4257 359.506L81.151 312.353C80.8036 310.759 79.363 309.817 77.9334 310.249Z" fill="#111111"/>
<path d="M363.287 193.243L361.561 193.765C360.132 194.197 359.254 195.839 359.602 197.434L373.022 259.021C373.369 260.616 374.81 261.558 376.239 261.126L377.965 260.604C379.395 260.172 380.272 258.53 379.925 256.935L366.504 195.348C366.157 193.753 364.717 192.811 363.287 193.243Z" fill="#111111"/>
<path d="M272.955 27.7147L69.3236 89.2537C49.309 95.3023 37.027 118.301 41.8909 140.622L158.478 675.664C163.342 697.986 183.51 711.177 203.524 705.129L407.156 643.59C427.171 637.541 439.453 614.543 434.589 592.221L318.002 57.1796C313.138 34.8581 292.97 21.6661 272.955 27.7147Z" fill="#151515"/>
<path d="M275.778 23.7848L72.1458 85.3238C52.1313 91.3723 39.8492 114.371 44.7132 136.692L161.3 671.734C166.164 694.056 186.332 707.248 206.347 701.199L409.978 639.66C429.993 633.611 442.275 610.613 437.411 588.291L320.824 53.2497C315.96 30.9281 295.792 17.7362 275.778 23.7848Z" fill="#222222"/>
<path d="M278.6 19.8549L74.9681 81.3939C54.9535 87.4425 42.6715 110.441 47.5354 132.763L164.122 667.804C168.986 690.126 189.154 703.318 209.169 697.269L412.801 635.73C432.815 629.682 445.097 606.683 440.233 584.361L323.646 49.3198C318.783 26.9983 298.615 13.8063 278.6 19.8549Z" fill="#2A2A2A"/>
<path d="M281.422 15.925L77.7904 77.464C57.7758 83.5125 45.4938 106.511 50.3577 128.833L166.945 663.874C171.809 686.196 191.977 699.388 211.991 693.339L415.623 631.8C435.638 625.752 447.92 602.753 443.056 580.432L326.469 45.3899C321.605 23.0683 301.437 9.87641 281.422 15.925Z" fill="#3A3A3A"/>
<path d="M285.972 11.4734L78.8889 74.0555C59.8274 79.816 48.1302 101.719 52.7625 122.978L170.188 661.869C174.821 683.128 194.028 695.691 213.09 689.931L420.173 627.349C439.234 621.588 450.932 599.685 446.299 578.426L328.874 39.5353C324.241 18.2766 305.034 5.71293 285.972 11.4734Z" fill="#0A0A0A" stroke="#444444" stroke-width="1.41332"/>
<path d="M280.927 23.3588L77.2956 84.8978C62.9994 89.2182 54.2266 105.646 57.7008 121.59L174.288 656.631C177.762 672.575 192.168 681.998 206.464 677.678L410.096 616.139C424.392 611.818 433.165 595.391 429.69 579.447L313.104 44.4052C309.629 28.4612 295.224 19.0384 280.927 23.3588Z" fill="#F4F5F7"/>
<path d="M124.547 72.5652L129.37 94.6982C130.768 101.114 134.343 103.452 140.095 101.714L243.637 70.4226C249.389 68.6842 251.566 64.6074 250.168 58.192L245.345 36.059L124.547 72.5652Z" fill="#0A0A0A"/>
<path d="M197.396 60.8062L168.059 69.672C166.63 70.1041 165.752 71.7468 166.1 73.3412C166.447 74.9356 167.888 75.8779 169.317 75.4458L198.654 66.5801C200.084 66.148 200.961 64.5053 200.614 62.9109C200.266 61.3165 198.826 60.3742 197.396 60.8062Z" fill="#1A1A1A"/>
<path d="M218.921 62.5072C221.304 61.7871 222.766 59.0492 222.187 56.3919C221.608 53.7345 219.207 52.1641 216.824 52.8841C214.441 53.6042 212.979 56.3421 213.558 58.9995C214.137 61.6568 216.538 63.2273 218.921 62.5072Z" fill="#111111"/>
<path d="M218.291 59.6202C219.244 59.3322 219.829 58.2371 219.597 57.1741C219.366 56.1112 218.405 55.483 217.452 55.771C216.499 56.0591 215.914 57.1542 216.146 58.2172C216.378 59.2801 217.338 59.9083 218.291 59.6202Z" fill="#2A2A4A"/>
<path d="M63.398 99.7345C63.638 99.1365 63.758 98.8375 63.919 98.5592C64.08 98.2809 64.2795 98.0277 64.6785 97.5214L69.6737 91.1826C70.5122 90.1186 70.9314 89.5865 71.4716 89.2129C72.0118 88.8393 72.6368 88.6492 73.8867 88.2688L250.219 34.6117C255.769 32.9229 258.544 32.0785 260.073 33.5893C261.603 35.1 260.919 38.0108 259.553 43.8322L156.909 481.077C153.807 494.291 152.256 500.898 149.167 501.099C146.077 501.301 144.603 494.892 141.656 482.073L57.8465 117.596C57.5547 116.327 57.4088 115.692 57.4635 115.04C57.5181 114.387 57.7697 113.761 58.2729 112.507L63.398 99.7345Z" fill="white" fill-opacity="0.4"/>
<path d="M441.816 608.5L245.087 667.953L352.069 196.633L441.816 608.5Z" fill="black" fill-opacity="0.03"/>
<defs>
<filter id="filter0_f_716_1683" x="4.8098" y="19.6301" width="450.25" height="735.528" filterUnits="userSpaceOnUse" color-interpolation-filters="sRGB">
<feFlood flood-opacity="0" result="BackgroundImageFix"/>
<feBlend mode="normal" in="SourceGraphic" in2="BackgroundImageFix" result="shape"/>
<feGaussianBlur stdDeviation="14.1332" result="effect1_foregroundBlur_716_1683"/>
</filter>
</defs>
</svg>
